<svg id="splitsvg" version="1.1" xmlns="http://www.w3.org/2000/svg" xmlns:xlink="http://www.w3.org/1999/xlink" width="1380" height="860"><g id="svgg"><path id="path0" d="M0.000 200.000 L 0.000 400.000 200.000 400.000 L 400.000 400.000 400.000 200.000 L 400.000 0.000 200.000 0.000 L 0.000 0.000 0.000 200.000 M149.351 180.920 C 151.604 181.728,151.616 181.758,150.538 183.887 C 150.038 184.874,149.630 185.885,149.630 186.135 C 149.630 186.466,149.020 186.399,147.374 185.887 C 131.571 180.969,121.060 201.867,134.268 211.944 C 139.281 215.768,147.480 215.640,152.125 211.664 C 154.160 209.922,154.213 209.987,153.119 212.870 C 152.517 214.457,152.237 215.798,152.352 216.541 C 152.524 217.639,152.429 217.757,150.805 218.449 C 137.699 224.033,122.963 214.268,122.963 200.000 C 122.963 186.577,136.942 176.470,149.351 180.920 M161.294 180.739 C 166.424 183.910,167.384 193.301,162.967 197.106 C 160.434 199.288,160.252 199.892,160.453 205.460 C 160.597 209.429,160.781 210.592,161.608 212.729 C 163.374 217.292,162.361 220.000,158.889 220.000 C 155.398 220.000,154.466 217.469,156.173 212.620 C 158.244 206.736,157.785 199.069,155.272 197.585 C 151.159 195.155,150.770 187.753,154.482 182.540 C 156.233 180.080,159.031 179.341,161.294 180.739 M147.627 188.866 C 149.143 189.537,149.259 189.688,149.261 190.998 C 149.265 193.805,149.949 195.260,152.296 197.458 C 155.227 200.203,155.512 201.753,153.745 205.343 C 149.643 213.675,137.950 214.439,132.984 206.699 C 126.544 196.663,136.858 184.102,147.627 188.866 M177.975 212.018 C 179.445 212.632,179.799 214.592,178.649 215.743 C 178.082 216.310,178.082 216.444,178.649 217.634 C 179.430 219.273,179.417 219.630,178.575 219.630 C 178.134 219.630,177.652 219.101,177.222 218.148 C 176.288 216.076,175.185 216.091,175.185 218.175 C 175.185 219.412,175.069 219.662,174.537 219.560 C 173.890 219.436,173.346 213.318,173.863 211.972 C 174.113 211.319,176.361 211.344,177.975 212.018 M189.630 212.222 C 189.630 212.864,189.383 212.963,187.778 212.963 C 186.049 212.963,185.926 213.025,185.926 213.889 C 185.926 214.739,186.062 214.815,187.593 214.815 C 189.012 214.815,189.259 214.925,189.259 215.556 C 189.259 216.187,189.012 216.296,187.593 216.296 C 185.988 216.296,185.926 216.337,185.926 217.407 C 185.926 218.494,185.967 218.519,187.778 218.519 C 189.177 218.519,189.630 218.654,189.630 219.074 C 189.630 219.515,189.095 219.630,187.037 219.630 L 184.444 219.630 184.444 215.802 C 184.444 211.285,184.316 211.481,187.284 211.481 C 189.383 211.481,189.630 211.559,189.630 212.222 M198.635 211.907 C 199.996 212.623,200.391 213.577,199.473 213.929 C 199.183 214.040,198.604 213.789,198.185 213.370 C 197.333 212.518,196.296 212.695,196.296 213.693 C 196.296 214.125,196.866 214.561,197.987 214.990 C 200.131 215.808,200.755 217.084,199.704 218.498 C 198.373 220.289,194.444 219.564,194.444 217.528 C 194.444 216.761,195.695 216.952,196.225 217.801 C 196.874 218.841,198.333 218.637,198.333 217.507 C 198.333 216.899,197.893 216.459,196.667 215.840 C 195.286 215.144,194.981 214.799,194.887 213.832 C 194.703 211.946,196.731 210.905,198.635 211.907 M210.556 212.222 C 210.556 212.578,210.123 212.819,209.352 212.894 L 208.148 213.010 208.148 216.347 C 208.148 219.325,208.078 219.671,207.500 219.560 C 206.952 219.455,206.835 218.937,206.745 216.200 C 206.641 213.059,206.611 212.963,205.748 212.963 C 204.776 212.963,204.264 212.443,204.639 211.837 C 205.039 211.189,210.556 211.548,210.556 212.222 M219.705 215.375 C 221.323 219.734,221.305 219.630,220.411 219.630 C 219.972 219.630,219.623 219.283,219.478 218.704 C 219.274 217.893,219.044 217.778,217.626 217.778 C 216.207 217.778,215.977 217.893,215.774 218.704 C 215.585 219.454,214.074 220.152,214.074 219.489 C 214.074 219.248,216.685 212.123,216.901 211.772 C 217.525 210.763,218.419 211.913,219.705 215.375 M226.955 214.659 C 227.157 220.375,230.370 220.122,230.370 214.391 C 230.370 210.373,231.592 210.091,231.779 214.066 C 232.014 219.065,229.239 221.495,226.465 218.721 C 225.112 217.368,225.107 211.150,226.458 211.596 C 226.680 211.669,226.897 213.009,226.955 214.659 M241.944 212.616 C 242.808 213.681,242.762 214.645,241.802 215.605 L 241.012 216.396 241.797 218.013 C 242.912 220.307,241.538 220.437,240.370 218.148 C 239.403 216.252,238.601 216.212,238.448 218.052 C 238.368 219.021,238.138 219.475,237.685 219.561 C 237.099 219.672,237.037 219.286,237.037 215.531 L 237.037 211.378 239.167 211.597 C 240.727 211.758,241.470 212.030,241.944 212.616 M252.734 215.213 C 253.471 217.265,254.074 219.099,254.074 219.287 C 254.074 220.029,252.924 219.576,252.593 218.704 C 252.297 217.926,252.000 217.778,250.741 217.778 C 249.482 217.778,249.184 217.926,248.889 218.704 C 248.677 219.261,248.245 219.630,247.803 219.630 C 247.078 219.630,247.563 217.829,249.822 212.130 C 250.474 210.485,251.380 211.445,252.734 215.213 M262.127 214.137 L 263.889 216.793 264.074 214.230 C 264.397 209.758,265.345 210.718,265.475 215.648 C 265.612 220.799,265.073 220.986,262.275 216.759 L 260.376 213.889 260.373 216.786 C 260.371 219.345,260.295 219.669,259.722 219.560 C 259.169 219.454,259.058 218.925,258.967 215.949 C 258.798 210.456,259.440 210.088,262.127 214.137 M276.111 212.222 C 276.111 212.553,275.699 212.825,275.093 212.895 L 274.074 213.012 274.074 216.321 C 274.074 219.383,274.019 219.630,273.333 219.630 C 272.647 219.630,272.593 219.383,272.593 216.296 L 272.593 212.963 271.481 212.963 C 270.610 212.963,270.370 212.800,270.370 212.207 C 270.370 211.501,270.562 211.458,273.241 211.558 C 275.497 211.644,276.111 211.785,276.111 212.222 M175.185 214.074 C 175.185 215.097,175.288 215.185,176.481 215.185 C 177.675 215.185,177.778 215.097,177.778 214.074 C 177.778 213.051,177.675 212.963,176.481 212.963 C 175.288 212.963,175.185 213.051,175.185 214.074 M238.519 214.074 C 238.519 215.157,238.596 215.225,239.722 215.116 C 240.728 215.019,240.926 214.848,240.926 214.074 C 240.926 213.300,240.728 213.129,239.722 213.032 C 238.596 212.924,238.519 212.991,238.519 214.074 M217.104 214.782 C 216.499 216.516,216.538 216.667,217.593 216.667 C 218.624 216.667,218.707 216.262,218.013 214.634 L 217.541 213.527 217.104 214.782 M250.036 215.240 C 249.508 216.755,249.467 216.667,250.706 216.667 C 251.765 216.667,251.776 216.646,251.385 215.370 C 250.893 213.768,250.561 213.736,250.036 215.240  M -25 0 L -5 0 L -5 20 L -25 20 Z M 405 0 L 425 0 L 425 20 L 405 20 Z" stroke="none" fill="#fcfbfb" fill-rule="evenodd" transform="translate(30,0)"></path><path id="path1" d="M140.143 180.360 C 118.016 183.715,117.512 214.992,139.511 219.533 C 145.250 220.717,152.222 218.949,152.222 216.309 C 152.222 215.551,152.543 213.999,152.935 212.860 L 153.647 210.789 152.022 212.030 C 142.147 219.567,128.007 212.344,128.079 199.801 C 128.137 189.782,138.537 182.320,147.732 185.700 C 149.685 186.419,149.630 186.416,149.630 185.804 C 149.630 185.532,150.024 184.532,150.505 183.581 L 151.381 181.851 149.117 181.158 C 146.331 180.305,142.659 179.979,140.143 180.360 M157.047 180.634 C 151.574 183.453,150.448 194.195,155.292 197.371 C 158.151 199.246,158.682 206.089,156.445 212.222 C 154.647 217.149,155.495 219.798,158.868 219.798 C 162.240 219.798,163.082 217.526,161.452 212.830 C 159.056 205.925,159.529 199.345,162.574 197.235 C 169.013 192.773,163.812 177.149,157.047 180.634 M139.406 188.673 C 128.856 191.976,128.413 207.229,138.756 211.099 C 148.235 214.646,159.492 203.749,152.374 197.916 C 150.288 196.206,149.591 194.925,149.076 191.852 L 148.673 189.444 146.836 188.813 C 144.670 188.067,141.532 188.008,139.406 188.673 M174.074 215.556 C 174.074 218.601,174.173 219.259,174.630 219.259 C 175.031 219.259,175.185 218.848,175.185 217.778 C 175.185 216.584,175.318 216.296,175.870 216.296 C 176.310 216.296,176.792 216.825,177.222 217.778 C 177.656 218.739,178.133 219.259,178.582 219.259 C 179.248 219.259,179.245 219.203,178.521 217.783 L 177.768 216.306 178.514 215.561 C 180.238 213.836,178.854 211.852,175.926 211.852 L 174.074 211.852 174.074 215.556 M184.815 215.556 L 184.815 219.259 187.222 219.259 C 188.580 219.259,189.630 219.098,189.630 218.889 C 189.630 218.685,188.796 218.519,187.778 218.519 L 185.926 218.519 185.926 217.222 C 185.926 215.933,185.935 215.926,187.593 215.926 C 188.509 215.926,189.259 215.759,189.259 215.556 C 189.259 215.352,188.509 215.185,187.593 215.185 C 185.935 215.185,185.926 215.178,185.926 213.889 L 185.926 212.593 187.778 212.593 C 188.796 212.593,189.630 212.426,189.630 212.222 C 189.630 212.013,188.580 211.852,187.222 211.852 L 184.815 211.852 184.815 215.556 M195.348 212.760 C 194.472 214.097,194.964 214.994,197.048 215.860 C 199.010 216.676,199.521 217.791,198.241 218.462 C 197.511 218.844,195.926 218.384,195.926 217.790 C 195.926 217.579,195.664 217.407,195.343 217.407 C 194.412 217.407,194.891 218.642,196.036 219.190 C 198.152 220.205,200.342 218.821,199.833 216.791 C 199.666 216.128,199.087 215.659,197.746 215.102 C 196.259 214.484,195.911 214.176,196.000 213.554 C 196.140 212.577,198.034 212.233,198.375 213.123 C 198.656 213.857,199.630 213.886,199.630 213.161 C 199.630 211.684,196.260 211.368,195.348 212.760 M204.815 212.222 C 204.815 212.426,205.315 212.593,205.926 212.593 L 207.037 212.593 207.037 215.926 C 207.037 218.642,207.140 219.259,207.593 219.259 C 208.045 219.259,208.148 218.642,208.148 215.926 L 208.148 212.593 209.259 212.593 C 209.870 212.593,210.370 212.426,210.370 212.222 C 210.370 212.008,209.198 211.852,207.593 211.852 C 205.988 211.852,204.815 212.008,204.815 212.222 M216.715 212.658 C 215.896 214.833,214.444 218.949,214.444 219.096 C 214.444 219.725,215.521 219.075,215.708 218.333 C 215.912 217.519,216.139 217.407,217.593 217.407 C 219.046 217.407,219.273 217.519,219.478 218.333 C 219.605 218.843,219.942 219.259,220.225 219.259 C 220.927 219.259,220.909 219.164,219.479 215.370 C 218.172 211.901,217.316 211.062,216.715 212.658 M225.926 214.973 C 225.926 219.350,228.552 221.224,230.833 218.476 C 231.714 217.415,231.792 211.852,230.926 211.852 C 230.480 211.852,230.370 212.420,230.370 214.741 C 230.370 217.920,230.064 218.519,228.435 218.519 C 227.101 218.519,226.667 217.466,226.667 214.235 C 226.667 212.893,226.505 211.852,226.296 211.852 C 226.079 211.852,225.926 213.139,225.926 214.973 M237.037 215.556 C 237.037 218.601,237.136 219.259,237.593 219.259 C 237.994 219.259,238.148 218.848,238.148 217.778 C 238.148 216.548,238.273 216.296,238.881 216.296 C 239.364 216.296,239.873 216.803,240.370 217.778 C 240.786 218.593,241.376 219.259,241.682 219.259 C 242.140 219.259,242.101 218.993,241.462 217.739 L 240.686 216.219 241.454 215.681 C 243.503 214.246,241.848 211.852,238.806 211.852 L 237.037 211.852 237.037 215.556 M250.000 211.993 C 250.000 212.070,249.420 213.737,248.710 215.697 C 247.509 219.016,247.594 221.028,248.821 218.333 C 249.170 217.568,249.503 217.407,250.742 217.407 C 252.000 217.407,252.297 217.556,252.593 218.333 C 252.786 218.843,253.177 219.259,253.461 219.259 C 253.847 219.259,253.639 218.327,252.636 215.556 C 251.635 212.789,251.133 211.853,250.648 211.853 C 250.292 211.852,250.000 211.915,250.000 211.993 M259.259 215.556 C 259.259 218.601,259.358 219.259,259.815 219.259 C 260.261 219.259,260.371 218.692,260.373 216.389 L 260.376 213.519 262.275 216.389 C 264.851 220.281,265.185 220.185,265.185 215.556 C 265.185 211.181,264.526 210.510,264.367 214.722 L 264.259 217.593 262.304 214.722 C 259.629 210.797,259.259 210.898,259.259 215.556 M270.370 212.222 C 270.370 212.426,270.870 212.593,271.481 212.593 L 272.593 212.593 272.593 215.926 C 272.593 218.642,272.695 219.259,273.148 219.259 C 273.601 219.259,273.704 218.642,273.704 215.926 L 273.704 212.593 274.815 212.593 C 275.426 212.593,275.926 212.426,275.926 212.222 C 275.926 212.008,274.753 211.852,273.148 211.852 C 271.543 211.852,270.370 212.008,270.370 212.222 M177.924 213.426 C 178.515 214.370,177.771 215.345,176.352 215.486 C 175.213 215.600,175.185 215.566,175.185 214.074 C 175.185 212.381,177.001 211.952,177.924 213.426 M240.724 213.128 C 241.626 214.214,241.049 215.360,239.537 215.485 L 238.148 215.600 238.148 214.096 C 238.148 212.461,239.690 211.882,240.724 213.128 M218.683 215.833 C 218.916 216.593,218.818 216.667,217.578 216.667 C 216.429 216.667,216.258 216.566,216.480 216.019 C 216.624 215.662,216.917 214.888,217.130 214.299 L 217.517 213.228 217.971 214.114 C 218.222 214.601,218.542 215.375,218.683 215.833 M251.315 214.618 C 252.080 216.448,252.004 216.667,250.601 216.667 L 249.351 216.667 249.950 215.000 C 250.669 213.001,250.643 213.008,251.315 214.618  M -25 0 L -5 0 L -5 20 L -25 20 Z M 405 0 L 425 0 L 425 20 L 405 20 Z" stroke="none" fill="#e4c595" fill-rule="evenodd" transform="translate(490,0)"></path><path id="path2" d="M157.529 203.889 C 157.531 205.315,157.598 205.853,157.678 205.084 C 157.758 204.316,157.757 203.149,157.675 202.492 C 157.593 201.834,157.527 202.463,157.529 203.889 M184.608 215.556 L 184.630 219.444 187.037 219.470 L 189.444 219.495 187.142 219.361 L 184.840 219.226 184.714 215.446 L 184.587 211.667 184.608 215.556 M225.683 214.630 C 225.684 216.259,225.749 216.880,225.827 216.009 C 225.905 215.138,225.904 213.804,225.825 213.046 C 225.745 212.287,225.681 213.000,225.683 214.630 M226.788 214.259 C 226.790 215.685,226.857 216.223,226.937 215.455 C 227.017 214.686,227.016 213.520,226.934 212.862 C 226.852 212.205,226.787 212.833,226.788 214.259 M231.603 214.259 C 231.605 215.685,231.672 216.223,231.752 215.455 C 231.832 214.686,231.831 213.520,231.749 212.862 C 231.667 212.205,231.601 212.833,231.603 214.259 M264.201 214.630 C 264.202 216.259,264.268 216.880,264.346 216.009 C 264.424 215.138,264.423 213.804,264.343 213.046 C 264.264 212.287,264.200 213.000,264.201 214.630 M265.262 215.436 C 265.196 218.675,265.094 219.229,264.537 219.374 C 263.930 219.533,263.930 219.546,264.549 219.587 C 265.486 219.648,265.601 219.091,265.462 215.157 L 265.339 211.667 265.262 215.436 M273.778 215.991 C 273.715 218.703,273.602 219.231,273.056 219.374 C 272.448 219.533,272.449 219.546,273.067 219.587 C 273.988 219.647,274.126 219.061,273.980 215.708 L 273.853 212.778 273.778 215.991 M216.949 217.669 C 217.409 217.758,218.076 217.755,218.430 217.662 C 218.784 217.569,218.407 217.497,217.593 217.501 C 216.778 217.505,216.488 217.581,216.949 217.669 M249.444 217.595 C 250.291 217.890,252.527 217.971,252.360 217.700 C 252.260 217.539,251.480 217.421,250.626 217.437 C 249.773 217.453,249.241 217.524,249.444 217.595  M -25 0 L -5 0 L -5 20 L -25 20 Z M 405 0 L 425 0 L 425 20 L 405 20 Z" stroke="none" fill="#f4e6ca" fill-rule="evenodd" transform="translate(950,0)"></path><path id="path3" d="M130.827 200.000 C 130.827 200.713,130.903 201.005,130.996 200.648 C 131.089 200.292,131.089 199.708,130.996 199.352 C 130.903 198.995,130.827 199.287,130.827 200.000 M160.115 203.889 C 160.117 205.111,160.186 205.566,160.268 204.901 C 160.351 204.235,160.349 203.235,160.265 202.679 C 160.180 202.122,160.113 202.667,160.115 203.889 M173.863 211.972 C 173.759 212.242,173.730 214.034,173.797 215.954 L 173.920 219.444 173.997 215.669 L 174.074 211.894 175.648 211.753 L 177.222 211.611 175.637 211.546 C 174.612 211.504,173.984 211.655,173.863 211.972 M185.825 211.749 C 186.483 211.831,187.649 211.832,188.418 211.752 C 189.186 211.672,188.648 211.605,187.222 211.603 C 185.796 211.601,185.168 211.667,185.825 211.749 M204.639 211.837 C 204.264 212.443,204.776 212.963,205.748 212.963 C 206.605 212.963,206.643 213.075,206.766 216.019 L 206.895 219.074 206.873 215.926 L 206.852 212.778 205.833 212.661 C 203.707 212.416,204.933 211.852,207.593 211.852 C 210.288 211.852,211.413 212.392,209.352 212.696 C 208.391 212.838,208.396 212.845,209.444 212.812 C 210.170 212.790,210.556 212.585,210.556 212.222 C 210.556 211.548,205.039 211.189,204.639 211.837 M237.685 211.743 C 238.144 211.831,238.894 211.831,239.352 211.743 C 239.810 211.655,239.435 211.582,238.519 211.582 C 237.602 211.582,237.227 211.655,237.685 211.743 M259.048 211.972 C 258.944 212.242,258.915 214.034,258.982 215.954 L 259.106 219.444 259.182 215.675 C 259.248 212.436,259.350 211.882,259.907 211.737 C 260.515 211.578,260.514 211.565,259.896 211.524 C 259.533 211.501,259.151 211.702,259.048 211.972 M271.769 211.753 C 272.640 211.831,273.974 211.830,274.732 211.751 C 275.491 211.671,274.778 211.607,273.148 211.608 C 271.519 211.610,270.898 211.675,271.769 211.753 M186.759 212.858 C 187.319 212.943,188.236 212.943,188.796 212.858 C 189.356 212.773,188.898 212.704,187.778 212.704 C 186.657 212.704,186.199 212.773,186.759 212.858 M270.833 212.848 C 271.190 212.941,271.773 212.941,272.130 212.848 C 272.486 212.755,272.194 212.679,271.481 212.679 C 270.769 212.679,270.477 212.755,270.833 212.848 M238.241 214.167 C 238.315 215.126,238.504 215.380,239.172 215.420 C 239.827 215.458,239.852 215.433,239.287 215.304 C 238.839 215.202,238.483 214.724,238.355 214.051 C 238.158 213.017,238.153 213.022,238.241 214.167 M186.764 215.081 C 187.327 215.166,188.161 215.163,188.616 215.076 C 189.072 214.988,188.611 214.918,187.593 214.921 C 186.574 214.924,186.201 214.995,186.764 215.081 M186.764 216.192 C 187.327 216.277,188.161 216.275,188.616 216.187 C 189.072 216.099,188.611 216.029,187.593 216.032 C 186.574 216.035,186.201 216.107,186.764 216.192 M238.294 216.821 C 238.183 217.109,238.164 217.817,238.250 218.395 C 238.385 219.295,238.415 219.251,238.463 218.083 C 238.502 217.128,238.712 216.670,239.167 216.552 C 239.774 216.393,239.773 216.380,239.155 216.339 C 238.792 216.316,238.405 216.532,238.294 216.821  M -25 0 L -5 0 L -5 20 L -25 20 Z M 405 0 L 425 0 L 425 20 L 405 20 Z" stroke="none" fill="#f9f1e1" fill-rule="evenodd" transform="translate(30,460)"></path><path id="path4" d="M128.680 186.019 L 127.593 187.222 128.796 186.134 C 129.918 185.120,130.170 184.815,129.884 184.815 C 129.820 184.815,129.279 185.356,128.680 186.019 M151.945 190.556 C 151.949 191.370,152.025 191.660,152.114 191.199 C 152.202 190.739,152.199 190.072,152.106 189.718 C 152.014 189.364,151.941 189.741,151.945 190.556 M127.778 213.079 C 127.778 213.143,128.319 213.684,128.981 214.283 L 130.185 215.370 129.097 214.167 C 128.083 213.045,127.778 212.793,127.778 213.079  M -25 0 L -5 0 L -5 20 L -25 20 Z M 405 0 L 425 0 L 425 20 L 405 20 Z" stroke="none" fill="#f4dcc4" fill-rule="evenodd" transform="translate(490,460)"></path></g></svg>